<svg width="195" height="47" viewBox="0 0 195 47" fill="none" xmlns="http://www.w3.org/2000/svg">
<path d="M19.5 0C30.2695 0 39 8.73045 39 19.5C39 30.2696 30.2695 39 19.5 39C17.8812 39 16.3087 38.8026 14.8048 38.4307C14.8072 38.4299 14.8091 38.4295 14.8091 38.4295V27.6221C15.577 28.2038 16.438 28.6578 17.3919 28.9834C18.3459 29.3324 19.3813 29.5069 20.4981 29.5069C22.4525 29.5069 24.2208 29.0068 25.803 28.006C27.3852 27.0057 28.6417 25.6793 29.5724 24.0272C30.5263 22.3522 31.0035 20.5023 31.0035 18.478C31.0035 16.4537 30.5263 14.604 29.5724 12.9288C28.6417 11.2535 27.3852 9.92743 25.803 8.95018C24.2208 7.94973 22.4526 7.44952 20.4981 7.44952C19.1719 7.44952 17.9504 7.68192 16.8336 8.14726C15.74 8.61261 14.786 9.25249 13.9716 10.0669V8.00787H8.7366V35.761C3.4719 32.2695 0 26.2908 0 19.5C0 8.73045 8.73045 0 19.5 0ZM19.8 12.789C20.8237 12.789 21.7547 13.0451 22.5924 13.557C23.43 14.0689 24.0929 14.7555 24.5815 15.6164C25.0933 16.4773 25.3495 17.431 25.3495 18.478C25.3495 19.5249 25.0934 20.479 24.5815 21.3398C24.0929 22.2011 23.4299 22.8874 22.5924 23.3992C21.7547 23.911 20.8237 24.1671 19.8 24.1671C18.7762 24.1671 17.8455 23.911 17.0079 23.3992C16.1704 22.8874 15.4957 22.2011 14.9839 21.3398C14.4952 20.479 14.2508 19.5249 14.2508 18.478C14.2508 17.431 14.4953 16.4773 14.9839 15.6164C15.4957 14.7555 16.1704 14.0689 17.0079 13.557C17.8455 13.0452 18.7762 12.7891 19.8 12.789Z" fill="white"/>
<path d="M39.0001 19.299V39H18.897L39.0001 19.299Z" fill="white"/>
<path d="M52 47V8.54543H58.3738V11.0663C59.3651 10.0693 60.5266 9.28599 61.8583 8.71631C63.2178 8.14663 64.7053 7.86175 66.3202 7.86175C68.6999 7.86175 70.8527 8.47423 72.7791 9.69907C74.7055 10.8954 76.2352 12.519 77.3684 14.5699C78.5299 16.6209 79.1106 18.8854 79.1106 21.3634C79.1106 23.8418 78.5299 26.106 77.3684 28.1571C76.2352 30.1796 74.7055 31.8034 72.7791 33.0278C70.8527 34.2527 68.6999 34.8652 66.3202 34.8652C64.9601 34.8652 63.6996 34.6515 62.5381 34.2242C61.3766 33.8254 60.3285 33.27 59.3934 32.5579V47H52ZM65.4702 28.3282C66.7168 28.3282 67.8499 28.015 68.8696 27.388C69.8893 26.7615 70.697 25.9208 71.2916 24.867C71.9152 23.8133 72.2267 22.6454 72.2267 21.3634C72.2267 20.0818 71.9152 18.9139 71.2916 17.8599C70.697 16.806 69.8893 15.9657 68.8696 15.339C67.8499 14.7123 66.7168 14.399 65.4702 14.399C64.2236 14.399 63.0905 14.7123 62.0708 15.339C61.0512 15.9657 60.2295 16.806 59.6059 17.8599C59.0113 18.9139 58.7137 20.0818 58.7137 21.3634C58.7137 22.6454 59.0113 23.8133 59.6059 24.867C60.2295 25.9208 61.0512 26.7615 62.0708 27.388C63.0905 28.015 64.2236 28.3282 65.4702 28.3282ZM83.4318 34.1817V8.54543H90.0604V12.9463C90.9387 11.4651 92.0435 10.3257 93.3752 9.52813C94.7347 8.7021 96.3212 8.28903 98.1341 8.28903L99.749 14.869C99.2105 14.6981 98.6014 14.6127 97.9216 14.6127C95.7972 14.6127 94.0833 15.3106 92.78 16.7063C91.4772 18.0736 90.8252 20.039 90.8252 22.6029V34.1817H83.4318ZM115.351 35.0363C112.489 35.0363 109.968 34.4379 107.787 33.2414C105.605 32.0456 103.905 30.4073 102.688 28.3282C101.47 26.2201 100.86 23.8133 100.86 21.1072C100.86 18.515 101.455 16.222 102.645 14.2281C103.835 12.2057 105.435 10.6106 107.447 9.44266C109.487 8.27483 111.739 7.69088 114.203 7.69088C116.724 7.69088 118.977 8.27483 120.96 9.44266C122.943 10.5821 124.501 12.1487 125.634 14.1427C126.796 16.1366 127.376 18.4011 127.376 20.936V23.5425H111.824C111.115 23.5425 110.436 23.5 109.784 23.4144C109.132 23.3289 108.481 23.2293 107.829 23.1152C108.169 24.8245 109.005 26.2201 110.337 27.3024C111.696 28.3567 113.424 28.8836 115.521 28.8836C117.135 28.8836 118.58 28.5559 119.855 27.9009C121.158 27.2459 122.22 26.4337 123.042 25.4655L124.657 32.1306C123.382 33.0994 121.937 33.8254 120.322 34.3098C118.736 34.7942 117.079 35.0363 115.351 35.0363ZM107.659 18.629C109.076 18.3157 110.464 18.159 111.824 18.159H116.328C117.121 18.159 117.872 18.1875 118.58 18.2444C119.288 18.3014 119.954 18.4011 120.577 18.5436C120.153 17.0054 119.373 15.7948 118.24 14.9117C117.135 14.0287 115.761 13.5872 114.118 13.5872C112.56 13.5872 111.2 14.043 110.039 14.9545C108.906 15.8375 108.113 17.0623 107.659 18.629ZM134.45 34.1817V14.4417H129.691V8.54543H134.577V0H141.716V8.54543H146.773V14.4417H141.844V34.1817H134.45ZM162.558 35.0363C159.697 35.0363 157.175 34.4379 154.994 33.2414C152.813 32.0456 151.113 30.4073 149.895 28.3282C148.677 26.2201 148.068 23.8133 148.068 21.1072C148.068 18.515 148.663 16.222 149.853 14.2281C151.042 12.2057 152.643 10.6106 154.654 9.44266C156.694 8.27483 158.946 7.69088 161.41 7.69088C163.932 7.69088 166.184 8.27483 168.167 9.44266C170.15 10.5821 171.708 12.1487 172.841 14.1427C174.003 16.1366 174.584 18.4011 174.584 20.936V23.5425H159.031C158.323 23.5425 157.643 23.5 156.991 23.4144C156.34 23.3289 155.688 23.2293 155.037 23.1152C155.377 24.8245 156.212 26.2201 157.544 27.3024C158.903 28.3567 160.632 28.8836 162.728 28.8836C164.343 28.8836 165.787 28.5559 167.062 27.9009C168.366 27.2459 169.427 26.4337 170.249 25.4655L171.864 32.1306C170.589 33.0994 169.144 33.8254 167.529 34.3098C165.943 34.7942 164.286 35.0363 162.558 35.0363ZM154.866 18.629C156.283 18.3157 157.671 18.159 159.031 18.159H163.535C164.329 18.159 165.079 18.1875 165.787 18.2444C166.496 18.3014 167.161 18.4011 167.785 18.5436C167.36 17.0054 166.58 15.7948 165.447 14.9117C164.343 14.0287 162.969 13.5872 161.326 13.5872C159.768 13.5872 158.408 14.043 157.246 14.9545C156.113 15.8375 155.32 17.0623 154.866 18.629ZM178.683 34.1817V8.54543H185.312V12.9463C186.19 11.4651 187.295 10.3257 188.626 9.52813C189.986 8.7021 191.572 8.28903 193.386 8.28903L195 14.869C194.462 14.6981 193.853 14.6127 193.173 14.6127C191.048 14.6127 189.334 15.3106 188.032 16.7063C186.728 18.0736 186.077 20.039 186.077 22.6029V34.1817H178.683Z" fill="white"/>
</svg>
