<svg width="803" height="125" viewBox="0 0 803 125" fill="none" xmlns="http://www.w3.org/2000/svg">
<path d="M625.323 0.305459C628.381 -0.187225 645.324 0.0640917 649.132 0.0640917L675.389 0.0789758C682.102 0.087097 690.987 -0.213392 697.36 1.10494C707.79 3.30533 717.42 8.30435 725.217 15.5638C731.102 21.0568 736.04 28.8455 740.706 35.5256L756.917 58.6741C771.814 79.9371 788.934 103.256 803 124.662C793.171 124.68 755.829 125.886 748.972 123.63C746.085 122.681 743.484 120.622 741.442 118.419C736.482 113.069 732.367 106.267 728.13 100.324L703.716 66.2606C698.973 59.6612 693.457 50.0201 686.515 46.5966C680.345 44.8934 648.96 45.7132 640.974 45.6942C636.855 45.6847 631.936 45.5855 628.313 47.8418C621.912 51.8329 592.253 95.2116 585.369 104.827C581.787 109.831 578.3 115.615 573.883 119.924C572.071 121.691 570.007 123.217 567.527 123.849C560.463 125.648 551.605 124.708 544.328 124.699L509 124.627C533.103 90.0976 559.058 56.1917 583.707 22.0052C592.506 9.7973 610.561 1.77404 625.323 0.305459Z" fill="black"/>
<path d="M0 0.0436778C15.5907 0.0292274 31.2027 0.00394245 46.7843 0.0441325C53.4309 0.0612923 59.5476 1.04347 65.1192 4.87011C67.5005 6.5319 70.0577 8.66649 71.8956 10.9587C76.5604 16.7772 80.9225 23.0843 85.2661 29.1372L109.643 63.2342C112.425 67.1263 116.768 73.993 120.07 77.0908C133.474 89.6635 142.349 72.4992 149.166 62.8874L173.327 28.7493C194.195 -0.769144 193.125 -0.0199871 228.815 0.00575261L257 0.0463926C252.476 7.29731 244.584 17.8104 239.406 25.1819L208.24 69.7021C198.679 83.42 186.156 104.613 173.34 114.273C158.896 125.952 144.681 123.79 128.861 124.777C84.2788 127.56 74.6185 103.929 51.4749 72.0702C34.8961 49.2481 17.353 23.6777 0 0.0436778Z" fill="black"/>
<path d="M310.615 0.331372C314.519 -0.247805 334.18 0.106328 339.579 0.115742L368.564 0.0955766C375.591 0.078542 384.23 -0.235709 391.006 0.942818C404.735 3.45139 417.17 10.5705 426.229 21.1033C429.488 24.945 433.484 30.9919 436.481 35.2416L452 57.1732L422.486 101.791L398.722 68.9266C392.656 60.5218 384.479 44.9809 373.431 45.4906C365.726 45.8461 356.616 45.114 349.027 45.5655C339.926 46.1065 323.899 43.9095 315.835 46.9524C309.501 50.4235 302.048 62.5194 297.505 68.8025L272.319 103.73C256.217 126.142 258.156 123.983 231.177 123.915L195 123.858C212.767 99.9023 229.55 74.7892 247.35 50.7933C266.418 25.0889 274.676 4.13592 310.615 0.331372Z" fill="black"/>
<path d="M518.847 0.215597C523.284 -0.0817547 567.318 -0.227042 568.767 0.846403C569.043 1.84043 569.202 2.34534 568.486 3.44225C564.877 8.97417 560.765 14.6753 556.998 20.0908L532.164 55.8913L503.772 96.5405C498.6 104.019 493.293 112.101 487.723 119.281C485.441 122.225 482.86 123.245 479.405 124.424C472.757 125.055 435.113 125.428 430.051 124.123C429.331 123.938 429.376 123.831 429 123.202C430.205 117.131 465.802 68.7758 471.657 59.0615C481.298 43.0609 497.351 22.6862 507.711 6.42705C510.039 2.7767 514.622 1.03681 518.847 0.215597Z" fill="black"/>
<path d="M312.618 82.2821C324.708 81.5203 340.464 82.5886 352.996 82.1781C362.836 82.3111 372.916 81.7917 382.707 82.5109C387.965 82.8968 393.67 92.6164 396.706 96.6595L417 123.933C405.992 124.063 394.77 123.964 383.743 123.962L279 123.948C289.046 111.927 298.604 95.3932 309.62 83.8119C309.976 83.4373 312.01 82.5416 312.618 82.2821Z" fill="black"/>
<path d="M627.128 82.1783C627.626 82.1527 628.12 82.1334 628.614 82.1201C645.198 81.7762 662.017 82.3033 678.623 82.0796C681.968 82.0347 691.613 81.6189 693.897 83.7704L694.096 83.9629C696.924 86.6417 702.993 95.217 705.536 98.6986C711.65 107.054 718.099 115.519 724 123.973L689.55 124L593 123.949C599.254 115.353 605.572 106.802 611.954 98.2952C615.398 93.6693 619.156 88.2219 623.148 84.0572C624.137 83.0279 625.755 82.5716 627.128 82.1783Z" fill="black"/>
</svg>
